# xmcd
#
# Track frame offsets: 
#        150
#        18418
#        34891
#        56069
#        71359
#        92558
#        113699
#        141777
#        146060
#        167169
#        187728
#        210043
#        233546
#        260673
#        276527
#        294116
#        309955
#
# Disc length: 4517 seconds
#
# Revision: 1
# Processed by: cddbd v1.5.2PL0 Copyright (c) Steve Scherf et al.
# Submitted via: ExactAudioCopy v1.0b3
#
DISCID=e811a311
DTITLE=Various Artist - Fabric 70 Mixed by Apollonia
DYEAR=2013
DGENRE=Electronic
TTITLE0=El Prevost feat D. Ham - Allez Ally
TTITLE1=Trus'me - Nards (Ryan Elliott Remix)
TTITLE2=Apollonia - Trinidad
TTITLE3=The Mole - Bleep Blop Robot
TTITLE4=Nail - I've Been There
TTITLE5=Daze Maxim - Farbfilm (Dyed Soudorom Remix)
TTITLE6=Funk E - Masa de Fatza
TTITLE7=Eduardo De La Calle - The Guy From Hackney
TTITLE8=Mood II Swing feat John Ciafone - Ohh
TTITLE9=DeWalta feat Frieder Klaris - Fromsidetoside
TTITLE10=Mazi - Scene Shifter
TTITLE11=Môme - Control (Tevo Howard Remix)
TTITLE12=Apollonia - Visa Americain
TTITLE13=Philipp Boston - Night Chime
TTITLE14=Masomenos and Ark and Cabanne - Bronze Septembre
TTITLE15=Grimes Adhesif - Fearless Fun
TTITLE16=Callisto - Need Ur Love (Stalagmite Mix)
EXTD=
EXTT0=
EXTT1=
EXTT2=
EXTT3=
EXTT4=
EXTT5=
EXTT6=
EXTT7=
EXTT8=
EXTT9=
EXTT10=
EXTT11=
EXTT12=
EXTT13=
EXTT14=
EXTT15=
EXTT16=
PLAYORDER=
